/* XPM */
static char *bitcoinnoomy16[] = {
/* columns rows colors chars-per-pixel */
"16 16 176 2 ",
"   c None",
".  c #C77B1E",
"X  c #CD7E1E",
"o  c #CF7F1E",
"O  c #D1811E",
"+  c #D0801F",
"@  c #D7841F",
"#  c #F3921C",
"$  c #D78520",
"%  c #D88520",
"&  c #D98620",
"*  c #DD8721",
"=  c #DC8820",
"-  c #DF8921",
";  c #D38A2E",
":  c #DF8D2A",
">  c #DF8E2B",
",  c #DE8D2D",
"<  c #DF8F2F",
"1  c #D58F3C",
"2  c #DF943B",
"3  c #DE943D",
"4  c #DF953D",
"5  c #DF953E",
"6  c #E08921",
"7  c #E18A21",
"8  c #E08A22",
"9  c #E48C22",
"0  c #E58D22",
"q  c #E78D22",
"w  c #E78E22",
"e  c #E98F23",
"r  c #EA8E22",
"t  c #EA8F22",
"y  c #EE9222",
"u  c #E99027",
"i  c #EC9124",
"p  c #ED9124",
"a  c #E9922A",
"s  c #EC952C",
"d  c #EC962E",
"f  c #F09323",
"g  c #F29523",
"h  c #F69420",
"j  c #F79521",
"k  c #F09324",
"l  c #F19424",
"z  c #F59624",
"x  c #F59625",
"c  c #F79624",
"v  c #F79724",
"b  c #F69725",
"n  c #F79725",
"m  c #F79726",
"M  c #F69727",
"N  c #F89620",
"B  c #F99721",
"V  c #F89723",
"C  c #F89724",
"Z  c #F69825",
"A  c #F89824",
"S  c #F99824",
"D  c #F89825",
"F  c #F99825",
"G  c #F89925",
"H  c #F99925",
"J  c #F89926",
"K  c #F99926",
"L  c #F89827",
"P  c #F99927",
"I  c #FA9A27",
"U  c #F79A28",
"Y  c #F7992A",
"T  c #F69A2A",
"R  c #F59A2F",
"E  c #F79C2D",
"W  c #F99A28",
"Q  c #F99A29",
"!  c #F89B29",
"~  c #F99B2A",
"^  c #F89A2B",
"/  c #F99B2D",
"(  c #F89B2E",
")  c #F99C2C",
"_  c #FA9D2C",
"`  c #F99D2E",
"'  c #FA9E2F",
"]  c #E49230",
"[  c #E99633",
"{  c #EE9833",
"}  c #E4963A",
"|  c #EB9A38",
" . c #ED9B3A",
".. c #EE9C38",
"X. c #EE9C3B",
"o. c #EA9A3C",
"O. c #EA9B3C",
"+. c #ED9C3C",
"@. c #EC9C3D",
"#. c #F39B31",
"$. c #F49D36",
"%. c #F99E31",
"&. c #FA9E30",
"*. c #FA9F32",
"=. c #FB9F33",
"-. c #F39F3C",
";. c #F09E3E",
":. c #F9A033",
">. c #F8A034",
",. c #F9A035",
"<. c #F9A137",
"1. c #FAA136",
"2. c #F5A03A",
"3. c #F4A03C",
"4. c #F7A23F",
"5. c #F9A239",
"6. c #F9A13A",
"7. c #F9A43F",
"8. c #FAA53E",
"9. c #EB9E41",
"0. c #EDA041",
"q. c #E7A24F",
"w. c #ECA44B",
"e. c #F2A140",
"r. c #F6A340",
"t. c #F1A448",
"y. c #F4A74B",
"u. c #EFA650",
"i. c #EFAB59",
"p. c #F3AA52",
"a. c #F1A955",
"s. c #F0AD5D",
"d. c #F9B461",
"f. c #F2B46A",
"g. c #F6B568",
"h. c #E6B376",
"j. c #EBB472",
"k. c #E3B37A",
"l. c #E2B47F",
"z. c #F0BC7F",
"x. c #ECBD86",
"c. c #EEC089",
"v. c #EFC28B",
"b. c #F0C188",
"n. c #E7C295",
"m. c #E9C79F",
"M. c #E7C6A0",
"N. c #E6C9A6",
"B. c #EACBA4",
"V. c #E4C8A8",
"C. c #E5C9A8",
"Z. c #E9CEAE",
"A. c #EDD0AE",
"S. c #E5CDB0",
"D. c #E7CFB2",
"F. c #E8D1B6",
"G. c #E6D4C0",
"H. c #E6D7C5",
"J. c #EDD9C2",
"K. c #EBDAC6",
"L. c #E2D8CB",
"P. c #E6DBCE",
"I. c #EADCCA",
"U. c #E8DCCE",
"Y. c #E6DDD4",
"T. c #E6DED4",
"R. c #ECE1D3",
"E. c #E5E0DB",
"W. c #E9E1D8",
"Q. c #EBE3DA",
"!. c #E8E3DE",
"~. c #EBE4DD",
"^. c #E5E2E0",
"/. c #EFE9E2",
"(. c #EAE8E5",
"). c #E9EBEE",
/* pixels */
"    + O         X               ",
"    + o @ t 6 l q 0 w           ",
"      * f v ! U B C F i p   : > ",
"    - k J 3.y.i.t.#.N c L a , < ",
"    7 x _ s.N.F.D.h...C D E ]   ",
"  * l G r.x.P.R.).C.{ ( Q &.2.  ",
"  * z ' f.E.B.g.Q.n.e.7.<.:.|   ",
". 7 Z 6.M.!.v.c.J.^.a.4.*.` 5.  ",
"  y b =.z.Y.(.Z.K.W.m.;.Y W  .1 ",
"  8 T ,.8.b.U.A.d./.T.l.@.I O.  ",
"  r M ) ,.p.L.H.I.~.G.q.# 1.9.  ",
"  = g A H R u.j.V.S.k.d P +.    ",
"% $ 9 n H V j m -.w.X.h <.0.    ",
"& &   i i S K H ^ / ~ >.o.      ",
"          e u s %.[ $.} 3 5     ",
"              ;         2 4     "
};
