/* XPM */
static char *bitcoinnoomy64[] = {
/* columns rows colors chars-per-pixel */
"64 64 167 2 ",
"   c None",
".  c #AA751D",
"X  c #AF7D1E",
"o  c #B1791E",
"O  c #BD8922",
"+  c #FD8300",
"@  c #FD8B04",
"#  c #FD8E0B",
"$  c #FD900F",
"%  c #FC8F11",
"&  c #FC9214",
"*  c #F7951F",
"=  c #FB951C",
"-  c #FD9B1F",
";  c #C18A22",
":  c #CF8922",
">  c #C88B2A",
",  c #D48E23",
"<  c #DA8F24",
"1  c #C69324",
"2  c #CB9624",
"3  c #CE9B25",
"4  c #CB932D",
"5  c #D49224",
"6  c #D4972B",
"7  c #D89829",
"8  c #DC9D33",
"9  c #E69725",
"0  c #E49C26",
"q  c #EC9B26",
"w  c #E19C2B",
"e  c #EE9D2B",
"r  c #F79625",
"t  c #F89624",
"y  c #F69925",
"u  c #F89825",
"i  c #F49729",
"p  c #F89728",
"a  c #F79B2C",
"s  c #F89B2B",
"d  c #F69D33",
"f  c #F99E32",
"g  c #F49F39",
"h  c #DBA227",
"j  c #DCA42B",
"k  c #DEA133",
"l  c #DDA93D",
"z  c #EFA027",
"x  c #E1A12B",
"c  c #ECA12B",
"v  c #EDAC2C",
"b  c #F4A227",
"n  c #FDA226",
"m  c #FEA926",
"M  c #F4A429",
"N  c #FDA429",
"B  c #F2AB29",
"V  c #FDAC2A",
"C  c #F7B32C",
"Z  c #FEB42C",
"A  c #FEBA2D",
"S  c #E2A933",
"D  c #E5A438",
"F  c #E7AD39",
"G  c #F7A037",
"H  c #FAA135",
"J  c #FBAB33",
"K  c #F6A13C",
"L  c #F9A33B",
"P  c #E4B43F",
"I  c #FFB832",
"U  c #EEA345",
"Y  c #EFA54A",
"T  c #F3A443",
"R  c #FAA642",
"E  c #FAA846",
"W  c #F5A74A",
"Q  c #F4A94D",
"!  c #FBAB4B",
"~  c #EDA754",
"^  c #EDA954",
"/  c #E7A959",
"(  c #EDAB5C",
")  c #F1AA54",
"_  c #FBAE53",
"`  c #F1AD5B",
"'  c #EFB05F",
"]  c #FBB056",
"[  c #FBB25B",
"{  c #ECAE64",
"}  c #E8AF6D",
"|  c #EEB164",
" . c #E7B16D",
".. c #EDB46B",
"X. c #F1B163",
"o. c #FBB561",
"O. c #F2B66D",
"+. c #EEB672",
"@. c #ECB975",
"#. c #E7B779",
"$. c #EBBA7B",
"%. c #F2BB76",
"&. c #F0BB7B",
"*. c #FFC441",
"=. c #E4BC85",
"-. c #EDBE83",
";. c #E2BE89",
":. c #EDC087",
">. c #EBC28B",
",. c #F1C48B",
"<. c #E7C294",
"1. c #ECC695",
"2. c #E5C897",
"3. c #EDC897",
"4. c #EAC79A",
"5. c #E6C89F",
"6. c #E9C99F",
"7. c #DECAAF",
"8. c #DFD2BB",
"9. c #E7CEA4",
"0. c #EBCDA4",
"q. c #E3CAA9",
"w. c #E9CFAD",
"e. c #E7D1A7",
"r. c #EBD0A6",
"t. c #E4D4AF",
"y. c #ECD1AC",
"u. c #E6D4B7",
"i. c #E9D3B3",
"p. c #E7D7BF",
"a. c #E9D7BC",
"s. c #ECD9BD",
"d. c #EBDDC4",
"f. c #E5DCCB",
"g. c #E9DECA",
"h. c #F1DFC7",
"j. c #E8DFD1",
"k. c #DFE8D5",
"l. c #E4E2CD",
"z. c #EBE1CC",
"x. c #F1E3CB",
"c. c #E2E1D1",
"v. c #ECE3D3",
"b. c #E7E5D8",
"n. c #EBE5DA",
"m. c #EDEADC",
"M. c #F1E9D4",
"N. c #F3EBDA",
"B. c #ECEDE2",
"V. c #EBEDEB",
"C. c #F2EFE4",
"Z. c #EEF0E6",
"A. c #E5F3EC",
"S. c #EDF2EF",
"D. c #F0F2E7",
"F. c #F2F3EC",
"G. c #F8F6EE",
"H. c #EBEFF1",
"J. c #E5F7F4",
"K. c #ECF2F2",
"L. c #EEF8F6",
"P. c #EDFCFE",
"I. c #F3F5F3",
"U. c #F4F9F5",
"Y. c #FAF9F4",
"T. c #F4FDFD",
"R. c #FDFFFF",
/* pixels */
"                                                                                                                                ",
"                                                                                                                                ",
"                                                                                                                                ",
"                                                                    1                                                           ",
"                                                ;   Z 2 C V A B Z V B B j 2 2 1                                                 ",
"                                          .   V q Z n n s t t s t t t s n n N Z Z Z M                                           ",
"                                        q 0 Z N s = t = y y y = y t t t t t t t a V Z A                                         ",
"                                    Z V s N t t s s t s s = t s s y s y y y y t t t y s Z ; 0                                   ",
"                                  Z n t t t = y a s y = * s s y = y s t s t y = y = y t s s V                                   ",
"                              Z Z s t s s y s a s s s s s t t t y t = s t y t s y s t y y t n V b                               ",
"                            Z V y t s t = t s s a a s s s s s t y t y t = y t s y = s t t t t = s A ,                           ",
"                        V Z s t = s * s y y s s a f s y s s a t s t s y s y t y y s t y s y y s t n b 9                         ",
"                      < s s = t * s = t s s s s s f f a a s s a s t s y t s s = s t y y s = y y s = n s N                       ",
"                    o x n s s t s y y y t s s s f H f s * # f t & a s s y = t s s t = s t y = s t s = s N                       ",
"                    A V s t t s s = y = y s a a s H L a T 1.9...$ y s s a s = y = t s * y t s t s t y t s Z                     ",
"                  c s t * y y = y t s s s a & = t H s f q.L.P.0.* s s a s s = y y y t s s t * s = t s y t V A                   ",
"                  V s s * s * s * s s * N s s ^ 1.7.a $ &.T.R.A.K t s $ = & Y a # s s s t s t s y t t y t t Z                   ",
"              7 V s * s s * s * s * * s s s T l.P.S.$.& K B.R.I.$.+ % U | f.k./ = y s s t y t t y s = s y t s Z                 ",
"              ; n = y y * s * s s * s s a = f i.R.R.1.a s 1.R.R.y.X.9.d.P.T.P.-.# s s s s s s t y y y y t y t n V               ",
"              Z s t s = s * s * * s s s a a # >.I.R.B.p # | C.R.R.U.R.R.R.R.T.<.= s s s s y s s s = s t y t t t V               ",
"            A N t s t s y = t s t s s s s H s f V.R.F.1...a.T.R.R.R.R.R.R.S.l.;.s H s s s s s s s s t s t y y t s e             ",
"          2 B s y t y t t s y t s s a s H H * & r.T.R.G.U.R.R.R.R.R.R.R.V.{ K * f f f f f s s s s s s s s t = s s M >           ",
"          C V t y y s t y s y y t s s s a & a | h.R.R.R.R.R.R.R.R.R.R.R.v.f # L H L L H H f f s y s s s s t s t s V             ",
"          Z y t = s t y y = = s s y f = = | a.Z.T.R.R.R.T.L.g.C.R.R.R.R.L.^ H R L L L H L f f f s s a s s s s y s * V           ",
"        1 Z t t y t y y y y t t s s & s 4.m.T.R.R.R.R.V.g.$.Q O.P.R.R.R.T.w.t E R L L L L L f H H f f a a s s s s = y 0         ",
"        3 V t t y y t s = s s s s * a 1.Z.R.R.R.R.D.a.+.T T N ) m.R.R.R.R.g.) s E R R R L L L K H f H f s s s s s s Z           ",
"        1 n t y = s t s t y s a s $ | S.R.R.R.R.V.1.K H ! _ ! ! 0.T.R.R.R.L.$.f R E R R R R L L L L H H a s a s * t n A         ",
"        h n t = y t y t t s s f s s l.T.R.R.R.T.1.s R _ ] o.[ L $.V.R.R.R.T.d.K R ! ! R R R R L L H H f a s a = s * s 7         ",
"        v s y s y s y s t y s s & T J.R.R.R.R.B.Q H ] ! [ [ [ [ Q v.T.R.R.R.V.X.H _ ! ! E E L L H H s a a s s s s y s C         ",
"      O B s t s t t y t s s a f = Q P.R.R.R.R.N.f H ] ] [ [ [ _ f ,.T.R.R.R.U.4.L ! ! ! R R L L H H f a s s s * = y t n         ",
"        V = y y s y s = s s s s & X.P.R.R.R.R.D.+.t ! ] ] R _ ! | i.U.R.R.R.R.d.) L ! ! R L L L f f f a s s y = y y t Z         ",
"        V s s = = y t s s s s s s K B.R.R.R.R.T.d.+.K T T %.>.j.m.T.R.R.R.R.R.P...K ! R R L L H H f s a s y t s t s s V         ",
"        n s s t s y t s s s f H t f u.R.R.R.R.R.R.U.m.g.B.B.P.R.R.R.Y.R.R.R.R.T.a.s R R R L K f f f s s = y y t s * t V         ",
"        V t t y = t s s s a f f H = -.I.R.R.R.R.R.R.R.R.R.R.R.R.P.d.y.x.R.R.R.R.v.( t R L L f f f s s a s s t s = s t V         ",
"        V n t y y t s s a s H H L H g f.I.R.R.R.R.R.R.R.R.R.H.g.$.` s 4.U.R.R.R.P.$.f L L f L f a a s s s * y t y * t Z l       ",
"        V n t s s y s s a f f H L H f Q i.L.P.T.T.R.R.R.T.H.1.) _ ! L O.H.R.R.R.T.d.t s = = K = f s s t t t s y y s t B         ",
"        , n t t t s s y s f H L L R R s g { @.>.x.R.R.R.U.-.W _ [ [ ] ! d.T.R.R.R.V.O.f Y <.=.p & s t s * s s = s t s v         ",
"        Z n t y t s s s f H H L L L R R R L = a m.R.R.R.B.~ L _ [ [ _ L :.U.R.R.R.R.I.N.L.P.A.g = s s y y = y y t = s S         ",
"          Z s t s s s f H H H L L L L L R ! f -.T.R.R.R.B.g L [ ] [ ] s ) v.R.R.R.R.R.R.R.R.P.$.= s t = y t s = t t n F         ",
"        , q = s s s s s s f H H H L L L L L a 9.T.R.R.R.D.-.t L L L L ` X.F.R.R.R.R.R.R.T.M.t.( s s t s t s * s s t Z P         ",
"          Z n y s s s s s s s f f H L L L L & t.T.R.R.R.T.v.1.( X.%.i.z.P.R.R.R.R.R.v.f.$.U & # * s s y = s t y t t V           ",
"            Z y s y s s s s a s s f f H f H s ..T.R.R.R.R.R.T.T.F.P.T.T.R.R.R.R.R.h.{ = = & = a s t t y y t s y s * V           ",
"          . c n t y s s s s s s s s s f f H & W d.T.R.R.R.R.R.R.R.R.R.R.T.F.N.Y.R.C.9 = s s a y = y s = y t s = = V *.          ",
"            q s t y = y t a s s s s s f f H s & -.m.T.R.R.R.R.R.R.R.R.R.s.^ T v.R.T.-.% f s s y s y t y t s t = * V             ",
"              V t s s t y = y t s s s s a s f t = ..c.I.P.L.T.D.C.N.T.R.9.% # 4.T.R.a.* % f s = t s = y s = y s Z               ",
"              Z n t = y t s y = s s s y s s a f = * s T @.$.' ^ t @.F.R.g.Y & ( F.R.B./ & a s t t y = s t s t s 4               ",
"                Z s = s y s t s * s t t s s s s f f * * & * = s % W m.R.P.@.& L f.P.c./ s s s s t y y y = t s V k               ",
"                  Z y t y t s y y = s t s s s s a s N a H H H H g = w.R.R.f.y & ..( a & & s = y s t s t s t n                   ",
"                  A V t s y t s * s * s * s s * s s n s s s f H s s  .J.J.8.T N s s & & s y s t = s t t t s c                   ",
"                    Z s = t s t s * s * s * * s s * s s s a a s f % U #.{ p a f f s a s t y = y y y s y n V                     ",
"                      Z = s t t * s s * * s * * s t s s a a s s s s t f & a s f s s s s s t s t y t = y M D                     ",
"                      V y n y t s s * s s * s s = t s = = s s y s s f f f f f f s s s s t y t t s = s s J                       ",
"                        < 0 V t s * s * y t t t s t s = y y s s s s s s s a f s s s s s y y s t t s V N                         ",
"                          o A n * s * s s t s s = s y t s t t s t s s s s y a a s s t t t t t t V V                             ",
"                              c V s t t = y y y y s = t t s = t s = s s s s s s s y y s s = s Z V                               ",
"                                  Z s s t y t t t y y s s * y y t s t t s s a s s y t = t n Z                                   ",
"                                  0 ; Z n s t t t y = s s y t y t s s = y t s s s s * s n V                                     ",
"                                        A V V t t t t t = t s t y = y y y t s t s N V N                                         ",
"                                          M Z Z A n s n t t s t t s = s s n n y M   8                                           ",
"                                                j j j v V M V n n V N V 7 M   j                                                 ",
"                                                          S                                                                     ",
"                                                                                                                                ",
"                                                                                                                                ",
"                                                                                                                                "
};
